<?xml version="1.0" standalone="no"?>
<svg xmlns="http://www.w3.org/2000/svg" viewBox="0 0 147.192 36" width="147.192" height="36"><g fill="#ead017" color="#ead017" transform="translate(0 3.9999999999999982) scale(0.2800001)"><svg width="100.0" height="100.0" x="0.0" y="0.0" viewBox="0 0 100 100"><g><path d="M100,37.238c0-11.791-10.606-21.349-23.689-21.349c-6.686,0-12.721,2.5-17.027,6.516c-2.076-0.605-4.267-0.936-6.535-0.936   c-11.081,0-20.372,7.733-22.887,18.15c-8.551,0.879-15.641,6.038-18.498,13.018C4.791,54.756,0.093,60.368,0.093,66.96   c0,8.411,7.646,15.228,17.077,15.228c0,0,0.002,0,0.003,0c-0.001,0.002-0.003,0.003-0.003,0.005c0,0,32.776,1.711,66.469-22.021   C95.082,52.11,98.751,47.3,98.607,44.458C99.508,42.203,100,39.772,100,37.238z M11.839,55.639c0,0,12.356-0.312,15.376,13.188   C30.235,82.323,23.338,60.175,11.839,55.639z M31.27,42.425c0,0,12.357-0.311,15.377,13.188S42.77,46.962,31.27,42.425z    M61.193,23.771c0,0,12.357-0.312,15.377,13.188C79.59,50.456,72.693,28.308,61.193,23.771z"></path></g></svg></g><path fill="#000000" fill-rule="nonzero" d="M5.18 19.44L0 19.44L0 0L4.46 0Q5.78 0 6.76 0.29Q7.73 0.58 8.38 1.18Q9.02 1.78 9.34 2.70Q9.65 3.62 9.65 4.87L9.65 4.87Q9.65 6.07 9.35 6.95Q9.05 7.82 8.44 8.33Q7.82 8.83 6.86 8.98L6.86 8.98Q8.04 9.24 8.76 9.88Q9.48 10.51 9.83 11.51Q10.18 12.50 10.18 13.90L10.18 13.90Q10.18 15.14 9.89 16.18Q9.60 17.21 8.99 17.93Q8.38 18.65 7.43 19.04Q6.48 19.44 5.18 19.44L5.18 19.44ZM2.71 10.18L2.71 17.50L4.54 17.50Q6.36 17.50 6.97 16.64Q7.58 15.79 7.58 13.90L7.58 13.90Q7.58 12.67 7.26 11.84Q6.94 11.02 6.23 10.60Q5.52 10.18 4.32 10.18L4.32 10.18L2.71 10.18ZM2.71 2.02L2.71 8.11L4.32 8.11Q5.47 8.11 6.12 7.79Q6.77 7.46 7.03 6.74Q7.30 6.02 7.30 4.87L7.30 4.87Q7.30 3.53 6.89 2.93Q6.48 2.33 5.62 2.17Q4.75 2.02 3.36 2.02L3.36 2.02L2.71 2.02ZM16.18 19.63L16.18 19.63Q14.64 19.63 13.75 19.01Q12.86 18.38 12.49 17.23Q12.12 16.08 12.12 14.52L12.12 14.52L12.12 10.49Q12.12 8.93 12.49 7.78Q12.86 6.62 13.75 6.00Q14.64 5.38 16.18 5.38L16.18 5.38Q17.71 5.38 18.59 6.00Q19.46 6.62 19.84 7.78Q20.21 8.93 20.21 10.49L20.21 10.49L20.21 14.52Q20.21 16.08 19.84 17.23Q19.46 18.38 18.59 19.01Q17.71 19.63 16.18 19.63ZM16.18 17.74L16.18 17.74Q16.92 17.74 17.22 17.30Q17.52 16.87 17.58 16.16Q17.64 15.46 17.64 14.69L17.64 14.69L17.64 10.34Q17.64 9.55 17.58 8.86Q17.52 8.16 17.22 7.72Q16.92 7.27 16.18 7.27L16.18 7.27Q15.43 7.27 15.12 7.72Q14.81 8.16 14.75 8.86Q14.69 9.55 14.69 10.34L14.69 10.34L14.69 14.69Q14.69 15.46 14.75 16.16Q14.81 16.87 15.12 17.30Q15.43 17.74 16.18 17.74ZM24.55 19.63L24.55 19.63Q23.74 19.63 23.28 19.20Q22.82 18.77 22.64 18.12Q22.46 17.47 22.46 16.80L22.46 16.80L22.46 5.57L25.03 5.57L25.03 16.03Q25.03 16.78 25.25 17.20Q25.46 17.62 26.14 17.62L26.14 17.62Q26.57 17.62 27.04 17.36Q27.50 17.11 27.94 16.75L27.94 16.75L27.94 5.57L30.50 5.57L30.50 19.44L27.94 19.44L27.94 18.07Q27.26 18.72 26.41 19.18Q25.56 19.63 24.55 19.63ZM35.93 19.44L33.36 19.44L33.36 0L35.93 0L35.93 19.44ZM41.11 19.63L41.11 19.63Q40.30 19.63 39.67 19.16Q39.05 18.70 38.69 17.96Q38.33 17.23 38.33 16.42L38.33 16.42Q38.33 15.12 38.76 14.23Q39.19 13.34 39.95 12.73Q40.70 12.12 41.70 11.66Q42.70 11.21 43.80 10.78L43.80 10.78L43.80 9.79Q43.80 8.95 43.70 8.40Q43.61 7.85 43.31 7.57Q43.01 7.30 42.41 7.30L42.41 7.30Q41.88 7.30 41.56 7.54Q41.23 7.78 41.09 8.22Q40.94 8.66 40.94 9.26L40.94 9.26L40.94 9.96L38.40 9.86Q38.45 7.56 39.46 6.47Q40.46 5.38 42.58 5.38L42.58 5.38Q44.64 5.38 45.50 6.50Q46.37 7.63 46.37 9.77L46.37 9.77L46.37 16.10Q46.37 16.75 46.40 17.35Q46.44 17.95 46.50 18.47Q46.56 18.98 46.61 19.44L46.61 19.44L44.26 19.44Q44.18 19.06 44.08 18.47Q43.97 17.88 43.92 17.40L43.92 17.40Q43.68 18.22 43.00 18.92Q42.31 19.63 41.11 19.63ZM42.12 17.42L42.12 17.42Q42.50 17.42 42.84 17.21Q43.18 16.99 43.44 16.72Q43.70 16.44 43.80 16.27L43.80 16.27L43.80 12.34Q43.20 12.67 42.67 13.01Q42.14 13.34 41.75 13.72Q41.35 14.09 41.12 14.56Q40.90 15.02 40.90 15.62L40.90 15.62Q40.90 16.46 41.21 16.94Q41.52 17.42 42.12 17.42ZM51.41 19.44L48.84 19.44L48.84 5.57L51.41 5.57L51.41 6.94Q52.10 6.29 52.94 5.83Q53.78 5.38 54.79 5.38L54.79 5.38Q55.63 5.38 56.08 5.81Q56.52 6.24 56.70 6.89Q56.88 7.54 56.88 8.21L56.88 8.21L56.88 19.44L54.31 19.44L54.31 8.95Q54.31 8.21 54.10 7.80Q53.88 7.39 53.21 7.39L53.21 7.39Q52.78 7.39 52.31 7.64Q51.84 7.90 51.41 8.26L51.41 8.26L51.41 19.44ZM62.98 23.74L62.98 23.74Q61.73 23.74 60.72 23.47Q59.71 23.21 59.14 22.63Q58.56 22.06 58.56 21.12L58.56 21.12Q58.56 20.45 58.85 19.94Q59.14 19.44 59.59 19.07Q60.05 18.70 60.55 18.46L60.55 18.46Q59.88 18.26 59.54 17.84Q59.21 17.42 59.21 16.97L59.21 16.97Q59.21 16.20 59.62 15.65Q60.02 15.10 60.74 14.45L60.74 14.45Q59.95 13.85 59.54 12.91Q59.14 11.98 59.14 10.32L59.14 10.32Q59.14 8.69 59.58 7.60Q60.02 6.50 60.90 5.94Q61.78 5.38 63.05 5.38L63.05 5.38Q64.18 5.38 64.86 5.76Q65.54 6.14 65.90 6.91L65.90 6.91Q66.02 6.72 66.55 6.25Q67.08 5.78 67.78 5.47L67.78 5.47L68.16 5.30L68.81 6.96Q68.50 7.01 67.98 7.19Q67.46 7.37 67.02 7.55Q66.58 7.73 66.46 7.85L66.46 7.85Q66.62 8.26 66.76 9.02Q66.89 9.79 66.89 10.39L66.89 10.39Q66.89 11.81 66.53 12.89Q66.17 13.97 65.34 14.58Q64.51 15.19 63.05 15.19L63.05 15.19Q62.74 15.19 62.38 15.14Q62.02 15.10 61.73 15.02L61.73 15.02Q61.58 15.24 61.43 15.53Q61.27 15.82 61.27 16.08L61.27 16.08Q61.27 16.34 61.55 16.50Q61.82 16.66 62.42 16.70L62.42 16.70L64.58 16.90Q66.22 17.04 67.01 17.88Q67.80 18.72 67.80 20.28L67.80 20.28Q67.80 21.41 67.27 22.19Q66.74 22.97 65.68 23.35Q64.61 23.74 62.98 23.74ZM63.17 21.72L63.17 21.72Q64.54 21.72 65.18 21.40Q65.83 21.07 65.83 20.35L65.83 20.35Q65.83 19.92 65.68 19.63Q65.52 19.34 65.11 19.18Q64.70 19.01 63.94 18.94L63.94 18.94L61.75 18.74Q61.49 19.01 61.25 19.27Q61.01 19.54 60.86 19.84Q60.72 20.14 60.72 20.47L60.72 20.47Q60.72 21.10 61.25 21.41Q61.78 21.72 63.17 21.72ZM63.05 13.39L63.05 13.39Q63.60 13.39 63.92 13.19Q64.25 12.98 64.42 12.59Q64.58 12.19 64.64 11.62Q64.70 11.04 64.70 10.32L64.70 10.32Q64.70 9.60 64.64 9.01Q64.58 8.42 64.43 8.00Q64.27 7.58 63.95 7.37Q63.62 7.15 63.07 7.15L63.07 7.15Q62.54 7.15 62.20 7.37Q61.85 7.58 61.68 7.98Q61.51 8.38 61.44 8.96Q61.37 9.55 61.37 10.32L61.37 10.32Q61.37 10.97 61.43 11.53Q61.49 12.10 61.67 12.50Q61.85 12.91 62.18 13.15Q62.52 13.39 63.05 13.39ZM73.56 19.63L73.56 19.63Q71.93 19.63 71.04 19.00Q70.15 18.36 69.80 17.12Q69.46 15.89 69.46 14.09L69.46 14.09L69.46 10.92Q69.46 9.07 69.82 7.85Q70.18 6.62 71.08 6.00Q71.98 5.38 73.56 5.38L73.56 5.38Q75.31 5.38 76.14 6.10Q76.97 6.82 77.23 8.17Q77.50 9.53 77.50 11.42L77.50 11.42L77.50 12.55L72.02 12.55L72.02 15.34Q72.02 16.18 72.18 16.70Q72.34 17.23 72.68 17.48Q73.03 17.74 73.58 17.74L73.58 17.74Q74.16 17.74 74.46 17.46Q74.76 17.18 74.87 16.67Q74.98 16.15 74.98 15.46L74.98 15.46L74.98 14.62L77.47 14.62L77.47 15.14Q77.47 17.23 76.58 18.43Q75.70 19.63 73.56 19.63ZM72.02 10.42L72.02 11.16L74.98 11.16L74.98 9.91Q74.98 9.05 74.88 8.46Q74.78 7.87 74.48 7.57Q74.18 7.27 73.54 7.27L73.54 7.27Q72.91 7.27 72.59 7.56Q72.26 7.85 72.14 8.53Q72.02 9.22 72.02 10.42L72.02 10.42ZM82.46 19.44L79.90 19.44L79.90 5.57L82.46 5.57L82.46 7.54Q83.23 6.26 84 5.83Q84.77 5.40 85.54 5.40L85.54 5.40Q85.63 5.40 85.72 5.40Q85.80 5.40 85.94 5.42L85.94 5.42L85.94 8.26Q85.66 8.14 85.28 8.05Q84.91 7.97 84.53 7.97L84.53 7.97Q83.93 7.97 83.44 8.24Q82.94 8.52 82.46 9.31L82.46 9.31L82.46 19.44ZM90.26 19.44L87.70 19.44L87.70 5.57L90.26 5.57L90.26 19.44ZM90.26 3.50L87.70 3.50L87.70 0.82L90.26 0.82L90.26 3.50ZM96.86 19.63L96.86 19.63Q95.23 19.63 94.34 19.00Q93.46 18.36 93.11 17.12Q92.76 15.89 92.76 14.09L92.76 14.09L92.76 10.92Q92.76 9.07 93.12 7.85Q93.48 6.62 94.38 6.00Q95.28 5.38 96.86 5.38L96.86 5.38Q98.62 5.38 99.44 6.10Q100.27 6.82 100.54 8.17Q100.80 9.53 100.80 11.42L100.80 11.42L100.80 12.55L95.33 12.55L95.33 15.34Q95.33 16.18 95.48 16.70Q95.64 17.23 95.99 17.48Q96.34 17.74 96.89 17.74L96.89 17.74Q97.46 17.74 97.76 17.46Q98.06 17.18 98.17 16.67Q98.28 16.15 98.28 15.46L98.28 15.46L98.28 14.62L100.78 14.62L100.78 15.14Q100.78 17.23 99.89 18.43Q99 19.63 96.86 19.63ZM95.33 10.42L95.33 11.16L98.28 11.16L98.28 9.91Q98.28 9.05 98.18 8.46Q98.09 7.87 97.79 7.57Q97.49 7.27 96.84 7.27L96.84 7.27Q96.22 7.27 95.89 7.56Q95.57 7.85 95.45 8.53Q95.33 9.22 95.33 10.42L95.33 10.42ZM107.71 14.35L105.79 14.35L105.79 10.44L102.43 10.44L102.43 8.50L105.79 8.50L105.79 4.58L107.71 4.58L107.71 8.50L111.19 8.50L111.19 10.44L107.71 10.44L107.71 14.35Z" transform="translate(36, 8.28)"></path></svg>